<svg xmlns="http://www.w3.org/2000/svg" xmlns:xlink="http://www.w3.org/1999/xlink" version="1.1" id="圖層_1" x="0px" y="0px" viewBox="0 0 21.6 29.8" style="enable-background:new 0 0 21.6 29.8;" xml:space="preserve">
<style type="text/css">
	.st0{fill:#FFFFFF;}
</style>
<g>
	<path class="st0" d="M0.6,10.6V4.7l4.2-4.2h5.9l4.2,4.2v5.9l-4.2,4.2H4.8L0.6,10.6z M4.6,0.1L0.2,4.5l0,0v6.2l4.4,4.4l0,0h6.2   l4.4-4.4l0,0V4.6l-4.4-4.4l0,0H4.6z"/>
	<polygon class="st0" points="10.2,13.8 9.3,12.9 11.4,10.8 12,10.8 12,10.3 11.3,10.3 9,12.6 6.6,10.3 5.9,10.3 5.9,10.8 6.4,10.8    8.6,12.9 7.7,13.8 5.6,11.7 5.6,11.7 3.1,11.7 2.1,10.8 5.3,10.8 5.3,10.3 1,10.3 5,14.3 5.6,14.3 3.5,12.2 5.4,12.2 7.4,14.3    7.9,14.3 8.9,13.3 9.9,14.3 10.4,14.3 14.4,10.3 13.7,10.3  "/>
	<polygon class="st0" points="4.9,1.9 4.9,5.8 5.3,5.8 5.3,1.5 9.3,1.5 9.3,1.1 5.1,1.1 1,5.2 1.6,5.2  "/>
	<polygon class="st0" points="5.3,6.4 5.3,6.4 9,6.4 9,6 1.5,6 1.5,6 1.2,6 1.2,9.3 9,9.3 9,8.9 1.6,8.9 1.6,7.9 9,7.9 9,7.5    1.6,7.5 1.6,6.4  "/>
	<path class="st0" d="M10.5,7.5V1.9l3.3,3.3v0l-1.5,2.2H10.5z M10.1,9.3l0.4-0.4v-1h2l1.7-2.5l0,0V5l-3.9-3.9h-0.2v6.3H9.3v0.4h0.8   V9.3z"/>
	<polygon class="st0" points="0.2,16.8 0.2,17.5 0.9,17.5 0.9,20.6 1.8,20.6 1.8,17.5 2.6,17.5 2.6,16.8  "/>
	<path class="st0" d="M3.8,19.1L4.1,18l0.4,1.1H3.8z M3.2,20.6l0.3-0.8h1.3l0.3,0.8H6l-1.5-3.8H3.8l-1.6,3.8H3.2z"/>
	<rect x="6.4" y="16.8" class="st0" width="0.9" height="3.8"/>
	<path class="st0" d="M9.3,18c0,0.4-0.2,0.5-0.6,0.5H8.6v-1h0.1C9.1,17.5,9.3,17.6,9.3,18 M8.6,19.2h0.3c0.8,0,1.3-0.4,1.3-1.2   c0-0.8-0.5-1.2-1.4-1.2H7.7v3.8h0.9V19.2z"/>
	<polygon class="st0" points="12.8,19.9 11.5,19.9 11.5,19 12.7,19 12.7,18.2 11.5,18.2 11.5,17.5 12.8,17.5 12.8,16.8 10.6,16.8    10.6,20.6 12.8,20.6  "/>
	<rect x="13.1" y="16.8" class="st0" width="0.9" height="3.8"/>
	<polygon class="st0" points="2.5,22 2.5,21.2 0.4,21.2 0.4,25.1 1.3,25.1 1.3,23.4 2.4,23.4 2.4,22.7 1.3,22.7 1.3,22  "/>
	<path class="st0" d="M3.7,23.6l0.4-1.1l0.4,1.1H3.7z M3.5,24.3h1.3L5,25.1H6l-1.5-3.9H3.8l-1.6,3.9h0.9L3.5,24.3z"/>
	<path class="st0" d="M7.5,22.7C7.2,22.6,7,22.5,7,22.3c0-0.2,0.2-0.4,0.4-0.4c0.2,0,0.4,0.1,0.5,0.3l0,0.1l0.4-0.6l0,0   c-0.3-0.3-0.8-0.4-1.1-0.4c-0.7,0-1.2,0.5-1.2,1.2c0,0.6,0.4,0.9,0.9,1.1l0.1,0c0.3,0.1,0.6,0.2,0.6,0.5c0,0.2-0.2,0.5-0.4,0.5   c-0.3,0-0.6-0.3-0.6-0.5l0-0.1L6,24.4l0,0c0.3,0.5,0.7,0.7,1.2,0.7c0.8,0,1.3-0.5,1.3-1.3C8.5,23.1,8,22.9,7.5,22.7"/>
	<polygon class="st0" points="11.9,25.1 11.9,21.3 11,21.3 11,22.7 9.8,22.7 9.8,21.3 8.9,21.3 8.9,25.1 9.8,25.1 9.8,23.4 11,23.4    11,25.1  "/>
	<rect x="12.4" y="21.3" class="st0" width="0.9" height="3.8"/>
	<path class="st0" d="M16.8,23.2c0,0.6-0.3,1.2-1.1,1.2c-0.8,0-1.1-0.6-1.1-1.2c0-0.5,0.4-1.1,1.1-1.1C16.4,22,16.8,22.6,16.8,23.2    M15.7,21.2c-1.1,0-2,0.8-2,2c0,1.2,0.8,2,2,2s2-0.8,2-2C17.7,22,16.8,21.2,15.7,21.2"/>
	<polygon class="st0" points="18.1,21.2 18.1,25.1 19,25.1 19,22.7 20.9,25.2 21.6,25.2 21.6,21.3 20.7,21.3 20.7,23.7 18.7,21.2     "/>
	<polygon class="st0" points="2.5,25.7 1.7,28.2 1,25.8 0.1,25.8 1.3,29.7 2,29.7 2.7,27.4 3.4,29.7 4,29.7 5.4,25.8 4.5,25.8    3.8,28.2 3,25.7  "/>
	<polygon class="st0" points="5.7,25.8 5.7,29.6 7.8,29.6 7.8,28.8 6.6,28.8 6.6,28 7.8,28 7.8,27.2 6.6,27.2 6.6,26.5 7.8,26.5    7.8,25.8  "/>
	<polygon class="st0" points="8.3,25.8 8.3,29.6 10.4,29.6 10.4,28.8 9.2,28.8 9.2,28 10.4,28 10.4,27.2 9.2,27.2 9.2,26.5    10.4,26.5 10.4,25.8  "/>
	<polygon class="st0" points="12.9,25.8 11.8,27.2 11.8,25.8 10.9,25.8 10.9,29.6 11.8,29.6 11.8,28 12.9,29.6 14,29.6 12.4,27.5    14,25.8  "/>
</g>
</svg>